<svg width="32" height="32" viewBox="0 0 32 32" fill="none" xmlns="http://www.w3.org/2000/svg">
<path opacity="0.1" fill-rule="evenodd" clip-rule="evenodd" d="M0 16C0 7.16344 7.16344 0 16 0C24.8366 0 32 7.16344 32 16C32 24.8366 24.8366 32 16 32C7.16344 32 0 24.8366 0 16Z" fill="white"/>
<path fill-rule="evenodd" clip-rule="evenodd" d="M16.0007 7.46655C13.6832 7.46655 13.3923 7.47669 12.4821 7.51811C11.5736 7.55971 10.9535 7.70353 10.4109 7.91456C9.84969 8.13252 9.37359 8.42407 8.89928 8.89857C8.42461 9.37288 8.13305 9.84898 7.91438 10.41C7.70282 10.9528 7.55882 11.5731 7.51793 12.4812C7.47722 13.3914 7.46655 13.6824 7.46655 16C7.46655 18.3175 7.47686 18.6075 7.51811 19.5177C7.55989 20.4262 7.70371 21.0462 7.91456 21.5888C8.13269 22.1501 8.42425 22.6262 8.89875 23.1005C9.37288 23.5752 9.84898 23.8674 10.4099 24.0854C10.9528 24.2964 11.5731 24.4402 12.4814 24.4818C13.3916 24.5233 13.6823 24.5334 15.9996 24.5334C18.3173 24.5334 18.6073 24.5233 19.5175 24.4818C20.426 24.4402 21.0468 24.2964 21.5897 24.0854C22.1508 23.8674 22.6262 23.5752 23.1003 23.1005C23.575 22.6262 23.8665 22.1501 24.0852 21.589C24.295 21.0462 24.439 20.426 24.4817 19.5179C24.5226 18.6076 24.5332 18.3175 24.5332 16C24.5332 13.6824 24.5226 13.3916 24.4817 12.4814C24.439 11.5729 24.295 10.9528 24.0852 10.4102C23.8665 9.84898 23.575 9.37288 23.1003 8.89857C22.6256 8.4239 22.151 8.13234 21.5892 7.91456C21.0452 7.70353 20.4247 7.55971 19.5163 7.51811C18.606 7.47669 18.3163 7.46655 15.998 7.46655H16.0007ZM15.2351 9.00432C15.4623 9.00397 15.7158 9.00432 16.0006 9.00432C18.2791 9.00432 18.5491 9.0125 19.4489 9.05339C20.2809 9.09143 20.7324 9.23046 21.0332 9.34726C21.4315 9.50193 21.7154 9.68682 22.0139 9.98549C22.3125 10.2842 22.4974 10.5686 22.6525 10.9668C22.7693 11.2673 22.9085 11.7188 22.9463 12.5508C22.9872 13.4504 22.9961 13.7206 22.9961 15.998C22.9961 18.2754 22.9872 18.5456 22.9463 19.4451C22.9083 20.2772 22.7693 20.7287 22.6525 21.0292C22.4978 21.4274 22.3125 21.7109 22.0139 22.0094C21.7152 22.3081 21.4316 22.493 21.0332 22.6477C20.7328 22.765 20.2809 22.9037 19.4489 22.9417C18.5493 22.9826 18.2791 22.9915 16.0006 22.9915C13.722 22.9915 13.452 22.9826 12.5524 22.9417C11.7204 22.9033 11.2689 22.7643 10.9679 22.6475C10.5697 22.4928 10.2852 22.3079 9.98654 22.0093C9.68787 21.7106 9.50298 21.4269 9.34796 21.0284C9.23116 20.728 9.09196 20.2764 9.05409 19.4444C9.0132 18.5449 9.00502 18.2746 9.00502 15.9959C9.00502 13.7171 9.0132 13.4483 9.05409 12.5487C9.09213 11.7167 9.23116 11.2651 9.34796 10.9643C9.50263 10.5661 9.68787 10.2817 9.98654 9.983C10.2852 9.68433 10.5697 9.49944 10.9679 9.34441C11.2687 9.22708 11.7204 9.08841 12.5524 9.05019C13.3396 9.01463 13.6447 9.00397 15.2351 9.00219V9.00432ZM20.5557 10.4212C19.9904 10.4212 19.5317 10.8794 19.5317 11.4449C19.5317 12.0102 19.9904 12.4689 20.5557 12.4689C21.1211 12.4689 21.5797 12.0102 21.5797 11.4449C21.5797 10.8795 21.1211 10.4212 20.5557 10.4212ZM16.0007 11.6177C13.5806 11.6177 11.6184 13.5798 11.6184 16C11.6184 18.4201 13.5806 20.3813 16.0007 20.3813C18.4208 20.3813 20.3823 18.4201 20.3823 16C20.3823 13.5798 18.4208 11.6177 16.0007 11.6177ZM16.0007 13.1555C17.5715 13.1555 18.8451 14.4289 18.8451 16C18.8451 17.5708 17.5715 18.8444 16.0007 18.8444C14.4296 18.8444 13.1562 17.5708 13.1562 16C13.1562 14.4289 14.4296 13.1555 16.0007 13.1555Z" fill="white"/>
</svg>
