<svg width="162" height="48" viewBox="0 0 162 48" fill="none" xmlns="http://www.w3.org/2000/svg">
<g clip-path="url(#clip0)">
<path d="M155.999 0H5.99997C2.68628 0 0 2.68628 0 5.99997V41.9998C0 45.3135 2.68628 47.9998 5.99997 47.9998H155.999C159.313 47.9998 161.999 45.3135 161.999 41.9998V5.99997C161.999 2.68628 159.313 0 155.999 0Z" fill="black"/>
<path d="M155.999 0.959999C157.335 0.961543 158.617 1.49307 159.561 2.43797C160.506 3.38287 161.038 4.66397 161.039 6.00021V42C161.038 43.3363 160.506 44.6174 159.561 45.5623C158.617 46.5071 157.335 47.0387 155.999 47.0403H5.99997C4.66372 47.0387 3.38264 46.5072 2.43779 45.5623C1.49293 44.6174 0.961472 43.3363 0.959995 42V6.00021C0.96145 4.66395 1.4929 3.38284 2.43776 2.43794C3.38262 1.49303 4.66371 0.961518 5.99997 0.959999H155.999ZM155.999 0.000244141H5.99997C4.41011 0.00489784 2.8867 0.63853 1.76249 1.76274C0.638286 2.88694 0.00465369 4.41035 0 6.00021L0 42C0.00465369 43.5899 0.638286 45.1133 1.76249 46.2375C2.8867 47.3617 4.41011 47.9953 5.99997 48H155.999C157.589 47.9953 159.112 47.3617 160.237 46.2375C161.361 45.1133 161.995 43.5899 161.999 42V6.00021C161.995 4.41035 161.361 2.88694 160.237 1.76274C159.112 0.63853 157.589 0.00489784 155.999 0.000244141Z" fill="#A6A6A6"/>
<path d="M56.9016 12.2919C56.9234 12.7322 56.8554 13.1724 56.7016 13.5856C56.5479 13.9988 56.3117 14.3764 56.0074 14.6954C55.6663 15.0491 55.2544 15.3268 54.7986 15.5104C54.3429 15.6939 53.8535 15.7792 53.3625 15.7606C52.8683 15.765 52.3783 15.6706 51.9212 15.4829C51.464 15.2953 51.049 15.0181 50.7005 14.6678C50.3521 14.3174 50.0771 13.9009 49.8919 13.4428C49.7067 12.9847 49.6149 12.4942 49.622 12.0001C49.615 11.5059 49.7068 11.0154 49.892 10.5573C50.0772 10.0991 50.3522 9.68263 50.7006 9.33224C51.0491 8.98185 51.4641 8.70464 51.9212 8.51688C52.3783 8.32913 52.8683 8.23462 53.3625 8.23891C53.8705 8.23737 54.3735 8.34009 54.8403 8.54071C55.2738 8.71644 55.6596 8.99208 55.9664 9.34518L55.3336 9.97854C55.0924 9.69468 54.7892 9.47003 54.4475 9.32191C54.1057 9.17379 53.7345 9.10617 53.3625 9.12427C52.988 9.12233 52.6169 9.19599 52.2716 9.34084C51.9262 9.4857 51.6137 9.69876 51.3526 9.96727C51.0915 10.2358 50.8874 10.5542 50.7523 10.9035C50.6172 11.2528 50.554 11.6258 50.5665 12.0001C50.5575 12.5607 50.7153 13.1113 51.0197 13.5822C51.3242 14.0531 51.7616 14.4229 52.2765 14.6448C52.7914 14.8668 53.3606 14.9308 53.912 14.8288C54.4633 14.7268 54.972 14.4634 55.3734 14.072C55.7429 13.6738 55.957 13.1563 55.9769 12.6135H53.3625V11.7487H56.8512C56.8842 11.9279 56.9011 12.1097 56.9016 12.2919Z" fill="white" stroke="white" stroke-width="0.2" stroke-miterlimit="10"/>
<path d="M62.433 9.2849H59.1541V11.5677H62.1108V12.4326H59.1541V14.7154H62.433V15.6001H58.2295V8.40015H62.433V9.2849Z" fill="white" stroke="white" stroke-width="0.2" stroke-miterlimit="10"/>
<path d="M66.3342 15.6001H65.4084V9.2849H63.3975V8.40015H68.3452V9.2849H66.3342V15.6001Z" fill="white" stroke="white" stroke-width="0.2" stroke-miterlimit="10"/>
<path d="M71.9253 15.6001V8.40015H72.8499V15.6001H71.9253Z" fill="white" stroke="white" stroke-width="0.2" stroke-miterlimit="10"/>
<path d="M76.9537 15.6001H76.0279V9.2849H74.0171V8.40015H78.9647V9.2849H76.9537V15.6001Z" fill="white" stroke="white" stroke-width="0.2" stroke-miterlimit="10"/>
<path d="M88.3305 14.6697C87.6297 15.3684 86.6805 15.7607 85.6909 15.7607C84.7013 15.7607 83.752 15.3684 83.0512 14.6697C82.7045 14.3185 82.432 13.9012 82.2498 13.4426C82.0676 12.984 81.9795 12.4935 81.9907 12.0002C81.9795 11.5068 82.0676 11.0163 82.2498 10.5577C82.432 10.0991 82.7045 9.6818 83.0512 9.33065C83.3976 8.98417 83.8089 8.70941 84.2617 8.52209C84.7144 8.33477 85.1996 8.23858 85.6895 8.23902C86.1794 8.23945 86.6645 8.33651 87.1168 8.52463C87.5692 8.71275 87.98 8.98824 88.3258 9.33533C88.6728 9.68555 88.9458 10.1019 89.1288 10.5597C89.3118 11.0174 89.401 11.5073 89.3911 12.0002C89.4019 12.4935 89.3137 12.9839 89.1315 13.4425C88.9493 13.901 88.6769 14.3183 88.3305 14.6697ZM83.7344 14.0668C84.2534 14.5849 84.9569 14.876 85.6903 14.876C86.4237 14.876 87.1271 14.5849 87.6461 14.0668C87.9123 13.7943 88.1205 13.4707 88.258 13.1155C88.3956 12.7603 88.4597 12.3808 88.4465 12.0002C88.4597 11.6195 88.3956 11.2401 88.258 10.8849C88.1205 10.5296 87.9123 10.206 87.6461 9.93352C87.1271 9.41538 86.4237 9.12436 85.6903 9.12436C84.9569 9.12436 84.2534 9.41538 83.7344 9.93352C83.4686 10.2062 83.2608 10.5299 83.1234 10.8851C82.9861 11.2403 82.9221 11.6196 82.9352 12.0002C82.9221 12.3807 82.9861 12.76 83.1234 13.1152C83.2608 13.4704 83.4686 13.7941 83.7344 14.0668Z" fill="white" stroke="white" stroke-width="0.2" stroke-miterlimit="10"/>
<path d="M90.6895 15.6001V8.40015H91.8156L95.3148 14.0011H95.3547L95.3148 12.6136V8.40015H96.2406V15.6001H95.275L91.614 9.72782H91.5742L91.614 11.1154V15.6001H90.6895Z" fill="white" stroke="white" stroke-width="0.2" stroke-miterlimit="10"/>
<path d="M81.7626 26.1019C80.754 26.1057 79.7691 26.4083 78.9324 26.9714C78.0956 27.5345 77.4444 28.333 77.0611 29.2659C76.6778 30.1988 76.5795 31.2244 76.7786 32.2132C76.9777 33.202 77.4653 34.1096 78.1799 34.8214C78.8944 35.5332 79.8039 36.0174 80.7934 36.2128C81.7829 36.4081 82.8081 36.3059 83.7396 35.919C84.671 35.5322 85.467 34.878 86.0269 34.0391C86.5869 33.2002 86.8857 32.2142 86.8857 31.2056C86.8956 30.531 86.7697 29.8612 86.5155 29.2363C86.2613 28.6113 85.884 28.0439 85.4061 27.5677C84.9281 27.0915 84.3592 26.7164 83.7333 26.4646C83.1073 26.2127 82.4372 26.0894 81.7626 26.1019ZM81.7626 34.2988C81.1414 34.3431 80.5213 34.1993 79.983 33.8863C79.4447 33.5732 79.0132 33.1053 78.7445 32.5435C78.4758 31.9818 78.3825 31.3521 78.4767 30.7365C78.5709 30.121 78.8483 29.548 79.2726 29.0923C79.697 28.6366 80.2488 28.3192 80.8561 28.1814C81.4634 28.0437 82.0981 28.092 82.6775 28.32C83.257 28.548 83.7544 28.9452 84.105 29.4599C84.4555 29.9746 84.643 30.5828 84.6431 31.2056C84.6619 31.599 84.6019 31.9922 84.4664 32.362C84.331 32.7319 84.123 33.0709 83.8546 33.3591C83.5862 33.6474 83.2628 33.879 82.9035 34.0404C82.5443 34.2017 82.1563 34.2896 81.7626 34.2988ZM70.5866 26.1019C69.5779 26.1057 68.5931 26.4082 67.7563 26.9714C66.9195 27.5345 66.2683 28.3329 65.885 29.2658C65.5016 30.1988 65.4033 31.2244 65.6024 32.2131C65.8015 33.2019 66.2891 34.1095 67.0037 34.8214C67.7182 35.5332 68.6277 36.0174 69.6172 36.2128C70.6067 36.4081 71.6319 36.3059 72.5634 35.9191C73.4949 35.5322 74.2908 34.878 74.8508 34.0391C75.4108 33.2002 75.7096 32.2142 75.7096 31.2056C75.7195 30.531 75.5936 29.8613 75.3394 29.2363C75.0852 28.6113 74.7079 28.0439 74.23 27.5677C73.752 27.0916 73.1831 26.7164 72.5572 26.4646C71.9313 26.2128 71.2611 26.0894 70.5866 26.1019ZM70.5866 34.2988C69.9654 34.3431 69.3453 34.1993 68.807 33.8863C68.2687 33.5732 67.8371 33.1053 67.5685 32.5435C67.2998 31.9818 67.2065 31.3521 67.3007 30.7365C67.3949 30.121 67.6722 29.548 68.0966 29.0923C68.521 28.6366 69.0727 28.3192 69.68 28.1814C70.2873 28.0437 70.922 28.092 71.5015 28.32C72.081 28.548 72.5784 28.9452 72.9289 29.4599C73.2795 29.9746 73.467 30.5828 73.467 31.2056C73.4859 31.599 73.4259 31.9922 73.2904 32.362C73.155 32.7319 72.947 33.0709 72.6786 33.3591C72.4102 33.6474 72.0868 33.879 71.7275 34.0404C71.3683 34.2018 70.9803 34.2896 70.5866 34.2988ZM57.2921 27.6679V29.833H62.4733C62.3985 30.8486 61.9829 31.8091 61.2939 32.5589C60.7747 33.0882 60.1503 33.5027 59.461 33.7757C58.7717 34.0487 58.0329 34.1742 57.2921 34.1441C55.7777 34.1236 54.3322 33.5076 53.2685 32.4294C52.2049 31.3513 51.6085 29.8976 51.6085 28.3831C51.6085 26.8685 52.2049 25.4149 53.2685 24.3367C54.3322 23.2585 55.7777 22.6425 57.2921 22.622C58.7467 22.603 60.1501 23.1588 61.1973 24.1686L62.7246 22.6413C62.01 21.9339 61.1615 21.3763 60.2286 21.0012C59.2958 20.6261 58.2974 20.441 57.2921 20.4567C56.2415 20.4414 55.1983 20.6352 54.2232 21.0266C53.2482 21.4181 52.3606 21.9995 51.6123 22.7371C50.8639 23.4746 50.2696 24.3536 49.864 25.3228C49.4584 26.2921 49.2495 27.3323 49.2495 28.3831C49.2495 29.4338 49.4584 30.474 49.864 31.4433C50.2696 32.4126 50.8639 33.2915 51.6123 34.0291C52.3606 34.7666 53.2482 35.348 54.2232 35.7395C55.1983 36.131 56.2415 36.3247 57.2921 36.3094C58.3186 36.352 59.3425 36.1757 60.2957 35.7924C61.249 35.4091 62.1098 34.8275 62.8212 34.0862C64.084 32.7077 64.7572 30.8896 64.6965 29.0211C64.7015 28.5673 64.6626 28.1141 64.5804 27.6679H57.2921ZM111.662 29.3497C111.355 28.4252 110.771 27.6176 109.989 27.0366C109.208 26.4555 108.266 26.1292 107.293 26.1019C106.637 26.1059 105.989 26.2429 105.387 26.5046C104.786 26.7662 104.244 27.1471 103.794 27.6241C103.344 28.1012 102.996 28.6645 102.77 29.2801C102.544 29.8957 102.445 30.5507 102.479 31.2056C102.464 31.8766 102.585 32.5437 102.834 33.167C103.082 33.7904 103.454 34.3572 103.927 34.8336C104.4 35.31 104.964 35.6862 105.585 35.9398C106.207 36.1933 106.873 36.319 107.544 36.3094C108.385 36.314 109.214 36.1098 109.956 35.715C110.698 35.3202 111.331 34.7472 111.797 34.0475L110.057 32.8876C109.796 33.3205 109.428 33.6782 108.987 33.9256C108.547 34.173 108.049 34.3016 107.544 34.2988C107.024 34.3187 106.51 34.1819 106.069 33.9061C105.628 33.6303 105.279 33.2283 105.069 32.7522L111.894 29.9297L111.662 29.3497ZM104.702 31.051C104.678 30.6795 104.728 30.307 104.85 29.9552C104.972 29.6034 105.162 29.2794 105.411 29.0022C105.659 28.725 105.96 28.5001 106.297 28.3407C106.633 28.1813 106.998 28.0905 107.37 28.0738C107.757 28.0483 108.143 28.1374 108.48 28.3299C108.817 28.5225 109.09 28.8099 109.265 29.1565L104.702 31.051ZM99.1536 36H101.396V20.9982H99.1536V36ZM95.4804 27.2425H95.4032C95.0622 26.872 94.6461 26.5787 94.1827 26.382C93.7193 26.1853 93.2192 26.0898 92.7159 26.1019C91.3999 26.1579 90.1563 26.7201 89.2449 27.6711C88.3335 28.6221 87.8247 29.8884 87.8247 31.2056C87.8247 32.5228 88.3335 33.7892 89.2449 34.7402C90.1563 35.6912 91.3999 36.2534 92.7159 36.3094C93.2212 36.3228 93.7233 36.226 94.1874 36.0257C94.6515 35.8254 95.0664 35.5264 95.4032 35.1495H95.4804V35.8841C95.4804 37.8367 94.4366 38.8806 92.7545 38.8806C92.194 38.8672 91.6501 38.6872 91.1922 38.3636C90.7343 38.0399 90.3831 37.5873 90.1834 37.0633L88.2308 37.8754C88.5988 38.7714 89.226 39.5371 90.0319 40.0744C90.8379 40.6117 91.7859 40.8961 92.7545 40.8912C95.3838 40.8912 97.6071 39.3446 97.6071 35.5747V26.4111H95.4804V27.2425ZM92.9093 34.2988C92.1342 34.2331 91.412 33.8787 90.8857 33.3059C90.3594 32.7331 90.0673 31.9835 90.0673 31.2056C90.0673 30.4277 90.3594 29.6782 90.8857 29.1054C91.412 28.5325 92.1342 28.1782 92.9093 28.1125C93.295 28.1313 93.6728 28.2276 94.0205 28.3956C94.3681 28.5635 94.6783 28.7998 94.9327 29.0902C95.1871 29.3807 95.3803 29.7194 95.501 30.0861C95.6217 30.4529 95.6673 30.8401 95.6351 31.2249C95.6653 31.6072 95.618 31.9918 95.4961 32.3554C95.3742 32.7191 95.1803 33.0544 94.9258 33.3414C94.6713 33.6284 94.3616 33.8611 94.0151 34.0256C93.6686 34.1901 93.2925 34.283 92.9093 34.2988ZM122.166 20.9984H116.801V36H119.04V30.3164H122.166C122.8 30.3511 123.433 30.2563 124.029 30.0379C124.624 29.8194 125.169 29.4819 125.63 29.0458C126.09 28.6098 126.457 28.0844 126.708 27.5018C126.958 26.9192 127.088 26.2916 127.088 25.6574C127.088 25.0231 126.958 24.3955 126.708 23.813C126.457 23.2304 126.09 22.705 125.63 22.269C125.169 21.8329 124.624 21.4954 124.029 21.2769C123.433 21.0585 122.8 20.9637 122.166 20.9984ZM122.224 28.2286H119.04V23.0863H122.224C122.566 23.0792 122.906 23.1405 123.225 23.2665C123.543 23.3925 123.833 23.5808 124.077 23.8202C124.322 24.0597 124.516 24.3455 124.648 24.661C124.781 24.9765 124.849 25.3152 124.849 25.6575C124.849 25.9997 124.781 26.3384 124.648 26.6539C124.516 26.9694 124.322 27.2552 124.077 27.4947C123.833 27.7341 123.543 27.9224 123.225 28.0484C122.906 28.1744 122.566 28.2357 122.224 28.2286ZM136.062 26.0743C135.245 26.0266 134.432 26.2185 133.722 26.6265C133.012 27.0344 132.437 27.6407 132.067 28.3709L134.055 29.2009C134.252 28.8384 134.551 28.5413 134.914 28.3459C135.277 28.1505 135.69 28.0653 136.101 28.1007C136.669 28.0452 137.236 28.2173 137.677 28.579C138.118 28.9408 138.398 29.4628 138.455 30.0307V30.1851C137.736 29.8031 136.934 29.6042 136.12 29.6061C133.978 29.6061 131.797 30.7834 131.797 32.9836C131.818 33.4473 131.931 33.9021 132.131 34.321C132.331 34.7398 132.613 35.1143 132.961 35.4221C133.308 35.7299 133.714 35.9648 134.154 36.1128C134.594 36.2609 135.059 36.319 135.522 36.2838C136.085 36.317 136.648 36.1984 137.15 35.9405C137.653 35.6825 138.077 35.2946 138.378 34.8171H138.455V35.9751H140.617V30.2237C140.617 27.5603 138.629 26.0743 136.062 26.0743ZM135.792 34.2959C135.059 34.2959 134.036 33.9293 134.036 33.0221C134.036 31.8642 135.309 31.4202 136.41 31.4202C137.124 31.4012 137.831 31.5745 138.455 31.9221C138.373 32.5728 138.058 33.1717 137.568 33.6081C137.079 34.0444 136.448 34.2888 135.792 34.2959ZM148.491 26.4024L145.924 32.9063H145.847L143.184 26.4024H140.771L144.766 35.4925L142.489 40.5491H144.824L150.981 26.4024H148.491ZM128.323 36H130.562V20.9984H128.323V36Z" fill="white"/>
<path d="M12.5221 9.04562C12.1286 9.5161 11.9299 10.1192 11.9668 10.7315V37.2707C11.9298 37.8829 12.1285 38.4861 12.5221 38.9565L12.6109 39.0431L27.4776 24.1765V23.8257L12.6109 8.9585L12.5221 9.04562Z" fill="url(#paint0_linear)"/>
<path d="M32.4333 29.1343L27.478 24.1766V23.8258L32.4345 18.8694L32.5462 18.9331L38.4175 22.2692C40.0946 23.222 40.0946 24.781 38.4175 25.7344L32.5462 29.0705L32.4333 29.1343Z" fill="url(#paint1_linear)"/>
<path d="M32.5462 29.0699L27.478 24.0012L12.5225 38.9566C12.8642 39.258 13.3006 39.4304 13.756 39.4438C14.2114 39.4573 14.6572 39.311 15.0162 39.0303L32.5462 29.0699Z" fill="url(#paint2_linear)"/>
<path d="M32.5462 18.9324L15.0162 8.97199C14.6572 8.6913 14.2114 8.54501 13.756 8.55847C13.3006 8.57193 12.8642 8.74428 12.5225 9.04567L27.478 24.0012L32.5462 18.9324Z" fill="url(#paint3_linear)"/>
<path opacity="0.2" d="M32.4344 28.9583L15.0162 38.855C14.6711 39.1177 14.2499 39.261 13.8162 39.2633C13.3824 39.2656 12.9597 39.1268 12.6119 38.8678L12.5225 38.9572L12.6113 39.0437L12.6119 39.0431C12.9597 39.3023 13.3824 39.4412 13.8162 39.4389C14.2499 39.4366 14.6711 39.2931 15.0162 39.0303L32.5462 29.0699L32.4344 28.9583Z" fill="black"/>
<path opacity="0.12" d="M12.5221 38.7818C12.1286 38.3113 11.93 37.7082 11.9667 37.0959V37.2713C11.9299 37.8835 12.1286 38.4866 12.5221 38.9571L12.6115 38.8677L12.5221 38.7818Z" fill="black"/>
<path opacity="0.12" d="M38.4171 25.5585L32.4341 28.9583L32.5458 29.0699L38.4171 25.7338C38.7625 25.5839 39.0614 25.3442 39.2826 25.0395C39.5039 24.7349 39.6394 24.3765 39.6751 24.0017C39.6008 24.3411 39.4485 24.6586 39.2301 24.9288C39.0118 25.199 38.7334 25.4146 38.4171 25.5585Z" fill="black"/>
<path opacity="0.25" d="M15.0159 9.14786L38.4172 22.4438C38.7336 22.5876 39.012 22.8033 39.2304 23.0736C39.4488 23.344 39.6011 23.6616 39.6751 24.0011C39.6397 23.6262 39.5043 23.2676 39.283 22.9629C39.0617 22.6581 38.7627 22.4183 38.4172 22.2685L15.0159 8.97254C13.3388 8.01963 11.9668 8.81114 11.9668 10.7321V10.9074C11.9668 8.98658 13.3388 8.19507 15.0159 9.14786Z" fill="white"/>
</g>
<defs>
<linearGradient id="paint0_linear" x1="26.1593" y1="10.4517" x2="6.02047" y2="30.5905" gradientUnits="userSpaceOnUse">
<stop stop-color="#00A0FF"/>
<stop offset="0.00657" stop-color="#00A1FF"/>
<stop offset="0.2601" stop-color="#00BEFF"/>
<stop offset="0.5122" stop-color="#00D2FF"/>
<stop offset="0.7604" stop-color="#00DFFF"/>
<stop offset="1" stop-color="#00E3FF"/>
</linearGradient>
<linearGradient id="paint1_linear" x1="40.6011" y1="24.0018" x2="11.565" y2="24.0018" gradientUnits="userSpaceOnUse">
<stop stop-color="#FFE000"/>
<stop offset="0.4087" stop-color="#FFBD00"/>
<stop offset="0.7754" stop-color="#FFA500"/>
<stop offset="1" stop-color="#FF9C00"/>
</linearGradient>
<linearGradient id="paint2_linear" x1="29.7922" y1="26.7553" x2="2.48243" y2="54.0651" gradientUnits="userSpaceOnUse">
<stop stop-color="#FF3A44"/>
<stop offset="1" stop-color="#C31162"/>
</linearGradient>
<linearGradient id="paint3_linear" x1="8.7568" y1="0.211525" x2="20.9518" y2="12.4065" gradientUnits="userSpaceOnUse">
<stop stop-color="#32A071"/>
<stop offset="0.0685" stop-color="#2DA771"/>
<stop offset="0.4762" stop-color="#15CF74"/>
<stop offset="0.8009" stop-color="#06E775"/>
<stop offset="1" stop-color="#00F076"/>
</linearGradient>
<clipPath id="clip0">
<rect width="161.999" height="48" fill="white"/>
</clipPath>
</defs>
</svg>
