<svg width="97" height="28" viewBox="0 0 97 28" fill="none" xmlns="http://www.w3.org/2000/svg">
<path d="M15.696 19.816C14 21.496 11.936 22.336 9.504 22.336C7.072 22.336 5.008 21.496 3.312 19.816C1.632 18.12 0.792 16.048 0.792 13.6C0.792 11.152 1.632 9.088 3.312 7.408C5.008 5.712 7.072 4.864 9.504 4.864C11.936 4.864 14 5.712 15.696 7.408C17.392 9.088 18.24 11.152 18.24 13.6C18.24 16.048 17.392 18.12 15.696 19.816ZM5.64 17.56C6.68 18.584 7.968 19.096 9.504 19.096C11.04 19.096 12.328 18.584 13.368 17.56C14.408 16.52 14.928 15.2 14.928 13.6C14.928 12 14.408 10.68 13.368 9.64C12.328 8.6 11.04 8.08 9.504 8.08C7.968 8.08 6.68 8.6 5.64 9.64C4.6 10.68 4.08 12 4.08 13.6C4.08 15.2 4.6 16.52 5.64 17.56ZM28.461 10H31.557V22H28.461V20.656C27.709 21.776 26.517 22.336 24.885 22.336C23.573 22.336 22.485 21.896 21.621 21.016C20.773 20.136 20.349 18.92 20.349 17.368V10H23.445V16.984C23.445 17.784 23.661 18.4 24.093 18.832C24.525 19.248 25.101 19.456 25.821 19.456C26.621 19.456 27.261 19.208 27.741 18.712C28.221 18.216 28.461 17.472 28.461 16.48V10ZM41.2566 12.976H38.5446V17.968C38.5446 18.384 38.6486 18.688 38.8566 18.88C39.0646 19.072 39.3686 19.184 39.7686 19.216C40.1686 19.232 40.6646 19.224 41.2566 19.192V22C39.1286 22.24 37.6246 22.04 36.7446 21.4C35.8806 20.76 35.4486 19.616 35.4486 17.968V12.976H33.3606V10H35.4486V7.576L38.5446 6.64V10H41.2566V12.976ZM43.4394 22V4.48H46.5354V22H43.4394ZM50.9051 8.56C50.3931 8.56 49.9451 8.376 49.5611 8.008C49.1931 7.624 49.0091 7.176 49.0091 6.664C49.0091 6.152 49.1931 5.704 49.5611 5.32C49.9451 4.936 50.3931 4.744 50.9051 4.744C51.4331 4.744 51.8811 4.936 52.2491 5.32C52.6331 5.704 52.8251 6.152 52.8251 6.664C52.8251 7.176 52.6331 7.624 52.2491 8.008C51.8811 8.376 51.4331 8.56 50.9051 8.56ZM49.3691 22V10H52.4651V22H49.3691ZM57.9148 17.272C58.3308 18.776 59.4588 19.528 61.2988 19.528C62.4828 19.528 63.3788 19.128 63.9868 18.328L66.4828 19.768C65.2988 21.48 63.5548 22.336 61.2508 22.336C59.2668 22.336 57.6748 21.736 56.4748 20.536C55.2748 19.336 54.6748 17.824 54.6748 16C54.6748 14.192 55.2668 12.688 56.4508 11.488C57.6348 10.272 59.1548 9.664 61.0108 9.664C62.7708 9.664 64.2188 10.272 65.3548 11.488C66.5068 12.704 67.0828 14.208 67.0828 16C67.0828 16.4 67.0428 16.824 66.9628 17.272H57.9148ZM57.8668 14.872H63.9868C63.8108 14.056 63.4428 13.448 62.8828 13.048C62.3388 12.648 61.7148 12.448 61.0108 12.448C60.1788 12.448 59.4908 12.664 58.9468 13.096C58.4028 13.512 58.0428 14.104 57.8668 14.872ZM72.3401 12.064C72.6281 11.296 73.1001 10.72 73.7561 10.336C74.4281 9.952 75.1721 9.76 75.9881 9.76V13.216C75.0441 13.104 74.1961 13.296 73.4441 13.792C72.7081 14.288 72.3401 15.112 72.3401 16.264V22H69.2441V10H72.3401V12.064ZM81.5668 19.096H86.8948V22H77.4148V19.936L82.4788 12.904H77.6548V10H86.6548V12.064L81.5668 19.096Z" fill="#023047"/>
<path d="M92.406 21.712C92.006 22.112 91.526 22.312 90.966 22.312C90.406 22.312 89.926 22.112 89.526 21.712C89.126 21.312 88.926 20.832 88.926 20.272C88.926 19.712 89.126 19.232 89.526 18.832C89.926 18.432 90.406 18.232 90.966 18.232C91.526 18.232 92.006 18.432 92.406 18.832C92.806 19.232 93.006 19.712 93.006 20.272C93.006 20.832 92.806 21.312 92.406 21.712Z" fill="#1D81F3"/>
</svg>
